<svg width="14" height="14" viewBox="0 0 14 14" fill="none" xmlns="http://www.w3.org/2000/svg">
<path fill-rule="evenodd" clip-rule="evenodd" d="M1.58334 5.65878C1.58334 3.40797 3.40799 1.58333 5.6588 1.58333C7.90961 1.58333 9.73425 3.40797 9.73425 5.65878C9.73425 7.90959 7.90961 9.73423 5.6588 9.73423C3.40799 9.73423 1.58334 7.90959 1.58334 5.65878ZM5.6588 0.333328C2.71763 0.333328 0.333344 2.71761 0.333344 5.65878C0.333344 8.59995 2.71763 10.9842 5.6588 10.9842C6.90415 10.9842 8.04967 10.5568 8.95662 9.84054L12.6033 13.4872C12.8474 13.7313 13.2431 13.7313 13.4872 13.4872C13.7312 13.2431 13.7312 12.8474 13.4872 12.6033L9.84051 8.95666C10.5568 8.0497 10.9842 6.90416 10.9842 5.65878C10.9842 2.71761 8.59996 0.333328 5.6588 0.333328Z" fill="white"/>
</svg>
